<svg width="20" height="20" viewBox="0 0 20 20" fill="none" xmlns="http://www.w3.org/2000/svg">
<g clip-path="url(#clip0_1_184)">
<path d="M19.9804 5.88005C19.9336 4.81738 19.7617 4.0868 19.5155 3.45374C19.2616 2.78176 18.8709 2.18014 18.359 1.68002C17.8589 1.1721 17.2533 0.777435 16.5891 0.527447C15.9524 0.281274 15.2256 0.109427 14.1629 0.0625732C13.0923 0.0117516 12.7524 0 10.0371 0C7.3217 0 6.98182 0.0117516 5.91517 0.0586052C4.8525 0.105459 4.12192 0.277459 3.48901 0.523479C2.81689 0.777435 2.21527 1.16814 1.71514 1.68002C1.20723 2.18014 0.812712 2.78573 0.562572 3.44992C0.3164 4.0868 0.144553 4.81341 0.0976989 5.87609C0.0468773 6.9467 0.0351257 7.28658 0.0351257 10.002C0.0351257 12.7173 0.0468773 13.0572 0.0937309 14.1239C0.140584 15.1865 0.312584 15.9171 0.558757 16.5502C0.812712 17.2221 1.20723 17.8238 1.71514 18.3239C2.21527 18.8318 2.82085 19.2265 3.48505 19.4765C4.12192 19.7226 4.84853 19.8945 5.91136 19.9413C6.97785 19.9883 7.31788 19.9999 10.0333 19.9999C12.7486 19.9999 13.0885 19.9883 14.1552 19.9413C15.2178 19.8945 15.9484 19.7226 16.5813 19.4765C17.9254 18.9568 18.9881 17.8941 19.5078 16.5502C19.7538 15.9133 19.9258 15.1865 19.9726 14.1239C20.0195 13.0572 20.0312 12.7173 20.0312 10.002C20.0312 7.28658 20.0273 6.9467 19.9804 5.88005ZM18.1794 14.0457C18.1363 15.0225 17.9723 15.5499 17.8355 15.9015C17.4995 16.7728 16.8079 17.4643 15.9367 17.8004C15.585 17.9372 15.0538 18.1012 14.0808 18.1441C13.0259 18.1911 12.7096 18.2027 10.041 18.2027C7.37252 18.2027 7.05218 18.1911 6.0011 18.1441C5.02435 18.1012 4.4969 17.9372 4.14527 17.8004C3.71168 17.6402 3.31701 17.3862 2.99667 17.0541C2.66457 16.7298 2.41062 16.3391 2.25037 15.9055C2.11362 15.5539 1.94956 15.0225 1.90667 14.0497C1.85967 12.9948 1.84807 12.6783 1.84807 10.0097C1.84807 7.34122 1.85967 7.02087 1.90667 5.96995C1.94956 4.99319 2.11362 4.46575 2.25037 4.11412C2.41062 3.68038 2.66457 3.28586 3.00064 2.96536C3.3248 2.63327 3.7155 2.37931 4.14924 2.21921C4.50087 2.08247 5.03228 1.9184 6.00507 1.87537C7.05996 1.82851 7.37649 1.81676 10.0449 1.81676C12.7173 1.81676 13.0337 1.82851 14.0848 1.87537C15.0615 1.9184 15.589 2.08247 15.9406 2.21921C16.3742 2.37931 16.7689 2.63327 17.0892 2.96536C17.4213 3.28967 17.6753 3.68038 17.8355 4.11412C17.9723 4.46575 18.1363 4.99701 18.1794 5.96995C18.2262 7.02484 18.238 7.34122 18.238 10.0097C18.238 12.6783 18.2262 12.9908 18.1794 14.0457Z" fill="#FF6C00"/>
<path d="M10.0371 4.8642C7.20071 4.8642 4.89938 7.16537 4.89938 10.0019C4.89938 12.8385 7.20071 15.1396 10.0371 15.1396C12.8737 15.1396 15.1748 12.8385 15.1748 10.0019C15.1748 7.16537 12.8737 4.8642 10.0371 4.8642ZM10.0371 13.3346C8.19699 13.3346 6.70439 11.8422 6.70439 10.0019C6.70439 8.16165 8.19699 6.66921 10.0371 6.66921C11.8774 6.66921 13.3698 8.16165 13.3698 10.0019C13.3698 11.8422 11.8774 13.3346 10.0371 13.3346Z" fill="#FF6C00"/>
<path d="M16.5775 4.6611C16.5775 5.32346 16.0405 5.86052 15.378 5.86052C14.7156 5.86052 14.1785 5.32346 14.1785 4.6611C14.1785 3.99858 14.7156 3.46167 15.378 3.46167C16.0405 3.46167 16.5775 3.99858 16.5775 4.6611Z" fill="#FF6C00"/>
</g>
<defs>
<clipPath id="clip0_1_184">
<rect width="20" height="20" fill="white"/>
</clipPath>
</defs>
</svg>
