<svg
  aria-hidden="true"
  xmlns="http://www.w3.org/2000/svg"
>
  <defs>
    <!-- Header icons -->
    <symbol
      id="envelope"
      viewBox="0 0 43 32"
    >
      <path
        d="M38.667 0h-34.667c-2.206 0-4 1.794-4 4v24c0 2.206 1.794 4 4 4h34.667c2.206 0 4-1.794 4-4v-24c0-2.206-1.794-4-4-4v0zM38.667 2.667c0.181 0 0.353 0.038 0.511 0.103l-17.844 15.466-17.844-15.466c0.158-0.066 0.33-0.103 0.511-0.103h34.667zM38.667 29.333h-34.667c-0.736 0-1.333-0.598-1.333-1.333v-22.413l17.793 15.421c0.251 0.217 0.563 0.326 0.874 0.326s0.622-0.108 0.874-0.326l17.793-15.421v22.413c0 0.736-0.598 1.333-1.333 1.333v0z"
      ></path>
    </symbol>
    <symbol
      id="smartphone"
      viewBox="0 0 20 32"
    >
      <path
        d="M17 0h-14c-1.654 0-3 1.346-3 3v26c0 1.654 1.346 3 3 3h14c1.654 0 3-1.346 3-3v-26c0-1.654-1.346-3-3-3zM3 2h14c0.552 0 1 0.448 1 1v21h-16v-21c0-0.552 0.448-1 1-1zM17 30h-14c-0.552 0-1-0.448-1-1v-3h16v3c0 0.552-0.448 1-1 1z"
      ></path>
      <path
        d="M4.707 27.478c0.391 0.365 0.391 0.956 0 1.321s-1.024 0.365-1.414 0c-0.391-0.365-0.391-0.956 0-1.321s1.024-0.365 1.414 0z"
      ></path>
    </symbol>
    <!-- Social icons -->
    <symbol
      id="facebook"
      viewBox="0 0 32 32"
    >
      <path
        d="M21.329 5.313h2.921V.225C23.746.156 22.013 0 19.994 0c-4.212 0-7.097 2.649-7.097 7.519V12H8.249v5.688h4.648V32h5.699V17.689h4.46l.708-5.688h-5.169V8.082c.001-1.644.444-2.769 2.735-2.769z"
      />
    </symbol>
    <symbol
      id="instagram"
      viewBox="0 0 32 32"
    >
      <path
        d="M31.969 9.408c-.075-1.7-.35-2.869-.744-3.882a7.803 7.803 0 0 0-1.85-2.838A7.867 7.867 0 0 0 26.543.844C25.524.45 24.361.175 22.661.1 20.948.019 20.404 0 16.06 0s-4.888.019-6.595.094c-1.7.075-2.869.35-3.882.744a7.803 7.803 0 0 0-2.838 1.85A7.867 7.867 0 0 0 .901 5.52C.507 6.539.232 7.702.157 9.402c-.081 1.713-.1 2.257-.1 6.601s.019 4.888.094 6.595c.075 1.7.35 2.869.744 3.882a7.895 7.895 0 0 0 1.85 2.838 7.867 7.867 0 0 0 2.832 1.844c1.019.394 2.182.669 3.882.744 1.706.075 2.25.094 6.595.094s4.888-.019 6.595-.094c1.7-.075 2.869-.35 3.882-.744a8.184 8.184 0 0 0 4.682-4.682c.394-1.019.669-2.182.744-3.882.075-1.707.094-2.251.094-6.595s-.006-4.888-.081-6.595zm-2.882 13.065c-.069 1.563-.331 2.407-.55 2.969a5.31 5.31 0 0 1-3.038 3.038c-.563.219-1.413.481-2.969.55-1.688.075-2.194.094-6.464.094s-4.782-.019-6.464-.094c-1.563-.069-2.407-.331-2.969-.55a4.926 4.926 0 0 1-1.838-1.194 4.974 4.974 0 0 1-1.194-1.838c-.219-.563-.481-1.413-.55-2.969-.075-1.688-.094-2.194-.094-6.464s.019-4.782.094-6.464c.069-1.563.331-2.407.55-2.969a4.868 4.868 0 0 1 1.2-1.838A4.974 4.974 0 0 1 6.639 3.55c.563-.219 1.413-.481 2.969-.55 1.688-.075 2.194-.094 6.464-.094 4.276 0 4.782.019 6.464.094 1.563.069 2.407.331 2.969.55a4.914 4.914 0 0 1 1.838 1.194 4.974 4.974 0 0 1 1.194 1.838c.219.563.481 1.413.55 2.969.075 1.688.094 2.194.094 6.464s-.019 4.77-.094 6.458z"
      />
      <path
        d="M16.059 7.783c-4.538 0-8.22 3.682-8.22 8.22s3.682 8.22 8.22 8.22c4.539 0 8.22-3.682 8.22-8.22s-3.682-8.22-8.22-8.22zm0 13.552a5.333 5.333 0 0 1 0-10.664 5.333 5.333 0 0 1 0 10.664zM26.524 7.458a1.919 1.919 0 1 1-3.838 0 1.919 1.919 0 0 1 3.838 0z"
      />
    </symbol>
    <symbol
      id="linkedin"
      viewBox="0 0 32 32"
    >
      <path
        d="M31.992 32v-.001H32V20.263c0-5.741-1.236-10.164-7.948-10.164-3.227 0-5.392 1.771-6.276 3.449h-.093v-2.913h-6.364v21.364h6.627V21.42c0-2.785.528-5.479 3.977-5.479 3.399 0 3.449 3.179 3.449 5.657v10.401h6.62zM.528 10.636h6.635V32H.528V10.636zM3.843 0C1.722 0 0 1.721 0 3.843s1.721 3.879 3.843 3.879c2.121 0 3.843-1.757 3.843-3.879A3.846 3.846 0 0 0 3.843 0z"
      />
    </symbol>
    <symbol
      id="twitter"
      viewBox="0 0 32 32"
    >
      <path
        d="M32 6.078c-1.19.522-2.458.868-3.78 1.036a6.523 6.523 0 0 0 2.886-3.626 13.11 13.11 0 0 1-4.16 1.588A6.574 6.574 0 0 0 22.154 3c-3.632 0-6.556 2.948-6.556 6.562 0 .52.044 1.02.152 1.496-5.454-.266-10.28-2.88-13.522-6.862a6.605 6.605 0 0 0-.898 3.316 6.57 6.57 0 0 0 2.914 5.452 6.479 6.479 0 0 1-2.964-.808v.072c0 3.188 2.274 5.836 5.256 6.446a6.548 6.548 0 0 1-1.72.216 5.8 5.8 0 0 1-1.242-.112c.85 2.598 3.262 4.508 6.13 4.57a13.182 13.182 0 0 1-8.134 2.798c-.538 0-1.054-.024-1.57-.09A18.469 18.469 0 0 0 10.064 29c12.072 0 18.672-10 18.672-18.668 0-.29-.01-.57-.024-.848A13.087 13.087 0 0 0 32 6.078z"
      />
    </symbol>

    <!-- Contact icons -->

    <symbol
      id="map-pin"
      viewBox="0 0 32 32"
    >
      <path
        stroke-linejoin="round"
        stroke-linecap="round"
        stroke-width="1.333"
        d="M26.667 13.818C26.667 21.454 16 28 16 28S5.333 21.455 5.333 13.818C5.333 8.396 10.109 4 16 4s10.667 4.396 10.667 9.818z"
      />
      <path
        stroke-linejoin="round"
        stroke-linecap="round"
        stroke-width="1.333"
        d="M16 18.667a4 4 0 1 0 0-8 4 4 0 0 0 0 8z"
      />
    </symbol>
    <symbol
      id="mail"
      viewBox="0 0 32 32"
    >
      <path
        stroke-linejoin="round"
        stroke-linecap="round"
        stroke-width="1.333"
        d="M6.4 6.667h19.2c1.32 0 2.4 1.05 2.4 2.333v14c0 1.283-1.08 2.333-2.4 2.333H6.4C5.08 25.333 4 24.283 4 23V9c0-1.283 1.08-2.333 2.4-2.333z"
      />
      <path
        stroke-linejoin="round"
        stroke-linecap="round"
        stroke-width="1.333"
        d="m26.667 9.333-10.667 8-10.667-8"
      />
    </symbol>

    <symbol
      id="phone"
      viewBox="0 0 32 32"
    >
      <path
        stroke-linejoin="round"
        stroke-linecap="round"
        stroke-width="1.333"
        d="M26.666 21.337v3.218a2.146 2.146 0 0 1-2.338 2.145 21.239 21.239 0 0 1-9.257-3.293 20.914 20.914 0 0 1-6.436-6.436 21.221 21.221 0 0 1-3.293-9.3 2.144 2.144 0 0 1 2.134-2.338h3.218a2.144 2.144 0 0 1 2.145 1.845c.136 1.03.388 2.041.751 3.014a2.144 2.144 0 0 1-.483 2.263l-1.362 1.362a17.162 17.162 0 0 0 6.436 6.436l1.362-1.362a2.146 2.146 0 0 1 2.263-.483c.973.363 1.984.615 3.014.751a2.144 2.144 0 0 1 1.845 2.177z"
      />
    </symbol>

    <!-- Pizza icon -->
    <symbol
      id="pizza"
      viewBox="0 0 32 32"
    >
      <path
        style="fill: var(--color1, #fed070)"
        d="M15.719 16l11.115-11.115c-6.139-6.139-16.091-6.139-22.23 0s-6.139 16.091 0 22.23 16.091 6.139 22.23 0l-11.115-11.115z"
      ></path>
      <path
        style="fill: var(--color2, #faf8d2)"
        d="M15.719 16l9.528-9.528c-5.262-5.262-13.793-5.262-19.055 0s-5.262 13.793 0 19.055 13.793 5.262 19.055 0l-9.528-9.527z"
      ></path>
      <path
        style="fill: var(--color1, #fed070)"
        d="M18.883 15.875l9.62 8.546c4.664-3.962 4.664-12.41 0-16.372-0.055-0.047-0.112-0.090-0.168-0.135l-9.452 7.961z"
      ></path>
      <path
        style="fill: var(--color2, #faf8d2)"
        d="M18.883 15.875l8.031 7.197c3.787-3.217 3.787-10.457 0-13.674-0.055-0.047-0.116-0.086-0.172-0.132l-7.86 6.608z"
      ></path>
      <path
        style="fill: var(--color3, #d79c8c)"
        d="M28.070 18.246c0 0.93-0.754 1.684-1.684 1.684s-1.684-0.754-1.684-1.684c0-0.93 0.754-1.684 1.684-1.684s1.684 0.754 1.684 1.684z"
      ></path>
      <path
        style="fill: var(--color4, #cd6e61)"
        d="M26.386 20.491c-1.238 0-2.246-1.007-2.246-2.246s1.007-2.246 2.246-2.246 2.246 1.007 2.246 2.246-1.007 2.246-2.246 2.246zM26.386 17.123c-0.619 0-1.123 0.504-1.123 1.123s0.504 1.123 1.123 1.123 1.123-0.504 1.123-1.123-0.504-1.123-1.123-1.123z"
      ></path>
      <path
        style="fill: var(--color3, #d79c8c)"
        d="M19.649 24.421c0 0.93-0.754 1.684-1.684 1.684s-1.684-0.754-1.684-1.684c0-0.93 0.754-1.684 1.684-1.684s1.684 0.754 1.684 1.684z"
      ></path>
      <path
        style="fill: var(--color4, #cd6e61)"
        d="M17.965 26.667c-1.238 0-2.246-1.007-2.246-2.246s1.007-2.246 2.246-2.246 2.246 1.007 2.246 2.246-1.007 2.246-2.246 2.246zM17.965 23.298c-0.619 0-1.123 0.504-1.123 1.123s0.504 1.123 1.123 1.123 1.123-0.504 1.123-1.123-0.504-1.123-1.123-1.123z"
      ></path>
      <path
        style="fill: var(--color3, #d79c8c)"
        d="M11.789 22.737c0 0.93-0.754 1.684-1.684 1.684s-1.684-0.754-1.684-1.684c0-0.93 0.754-1.684 1.684-1.684s1.684 0.754 1.684 1.684z"
      ></path>
      <path
        style="fill: var(--color4, #cd6e61)"
        d="M10.105 24.982c-1.238 0-2.246-1.007-2.246-2.246s1.007-2.246 2.246-2.246 2.246 1.007 2.246 2.246-1.007 2.246-2.246 2.246zM10.105 21.614c-0.619 0-1.123 0.504-1.123 1.123s0.504 1.123 1.123 1.123 1.123-0.504 1.123-1.123-0.504-1.123-1.123-1.123z"
      ></path>
      <path
        style="fill: var(--color3, #d79c8c)"
        d="M7.86 16.561c0 0.93-0.754 1.684-1.684 1.684s-1.684-0.754-1.684-1.684c0-0.93 0.754-1.684 1.684-1.684s1.684 0.754 1.684 1.684z"
      ></path>
      <path
        style="fill: var(--color4, #cd6e61)"
        d="M6.175 18.807c-1.238 0-2.246-1.007-2.246-2.246s1.007-2.246 2.246-2.246 2.246 1.007 2.246 2.246-1.007 2.246-2.246 2.246zM6.175 15.439c-0.619 0-1.123 0.504-1.123 1.123s0.504 1.123 1.123 1.123 1.123-0.504 1.123-1.123-0.504-1.123-1.123-1.123z"
      ></path>
      <path
        style="fill: var(--color3, #d79c8c)"
        d="M10.105 9.263c0 0.93-0.754 1.684-1.684 1.684s-1.684-0.754-1.684-1.684c0-0.93 0.754-1.684 1.684-1.684s1.684 0.754 1.684 1.684z"
      ></path>
      <path
        style="fill: var(--color4, #cd6e61)"
        d="M8.421 11.509c-1.238 0-2.246-1.007-2.246-2.246s1.007-2.246 2.246-2.246 2.246 1.007 2.246 2.246-1.007 2.246-2.246 2.246zM8.421 8.14c-0.619 0-1.123 0.504-1.123 1.123s0.504 1.123 1.123 1.123 1.123-0.504 1.123-1.123-0.504-1.123-1.123-1.123z"
      ></path>
      <path
        style="fill: var(--color3, #d79c8c)"
        d="M16.842 6.456c0 0.93-0.754 1.684-1.684 1.684s-1.684-0.754-1.684-1.684c0-0.93 0.754-1.684 1.684-1.684s1.684 0.754 1.684 1.684z"
      ></path>
      <path
        style="fill: var(--color4, #cd6e61)"
        d="M15.158 8.702c-1.238 0-2.246-1.007-2.246-2.246s1.007-2.246 2.246-2.246 2.246 1.007 2.246 2.246-1.007 2.246-2.246 2.246zM15.158 5.333c-0.619 0-1.123 0.504-1.123 1.123s0.504 1.123 1.123 1.123 1.123-0.504 1.123-1.123-0.504-1.123-1.123-1.123z"
      ></path>
      <path
        fill="#e22f37"
        style="fill: var(--color5, #e22f37)"
        d="M26.386 15.439c-0.31 0-0.561-0.251-0.561-0.561 0-1.238 1.007-2.246 2.246-2.246 0.31 0 0.561 0.251 0.561 0.561s-0.252 0.561-0.561 0.561c-0.619 0-1.123 0.504-1.123 1.123 0 0.31-0.252 0.561-0.561 0.561z"
      ></path>
      <path
        style="fill: var(--color6, #a4e869)"
        d="M8.421 14.316c-0.31 0-0.561-0.251-0.561-0.561 0-1.238 1.007-2.246 2.246-2.246 0.31 0 0.561 0.251 0.561 0.561s-0.252 0.561-0.561 0.561c-0.619 0-1.123 0.504-1.123 1.123 0 0.31-0.252 0.561-0.561 0.561z"
      ></path>
      <path
        fill="#ed7161"
        style="fill: var(--color7, #ed7161)"
        d="M13.953 27.56c-0.112 0-0.226-0.034-0.325-0.104-0.253-0.179-0.313-0.529-0.133-0.783 0.358-0.505 0.239-1.207-0.266-1.566-0.253-0.179-0.312-0.53-0.133-0.783s0.53-0.313 0.783-0.133c1.009 0.717 1.248 2.122 0.531 3.131-0.109 0.154-0.282 0.237-0.458 0.237z"
      ></path>
      <path
        fill="#f9d70b"
        style="fill: var(--color8, #f9d70b)"
        d="M12.912 14.316c-0.31 0-0.561-0.251-0.561-0.561 0-0.696 0.566-1.263 1.263-1.263 0.077 0 0.14-0.063 0.14-0.14 0-0.696 0.566-1.263 1.263-1.263 0.077 0 0.14-0.063 0.14-0.14 0-0.31 0.252-0.561 0.561-0.561s0.561 0.251 0.561 0.561c0 0.696-0.566 1.263-1.263 1.263-0.077 0-0.14 0.063-0.14 0.14 0 0.696-0.566 1.263-1.263 1.263-0.077 0-0.14 0.063-0.14 0.14 0 0.31-0.252 0.561-0.561 0.561z"
      ></path>
      <path
        fill="#659c35"
        style="fill: var(--color9, #659c35)"
        d="M13.639 18.581c-0.112 0-0.223-0.015-0.334-0.045-0.326-0.089-0.597-0.299-0.765-0.593-0.039-0.067-0.124-0.091-0.191-0.052-0.605 0.346-1.378 0.135-1.723-0.47-0.024-0.042-0.059-0.059-0.085-0.066s-0.065-0.011-0.107 0.013c-0.269 0.154-0.612 0.061-0.766-0.209s-0.060-0.613 0.209-0.766c0.293-0.167 0.633-0.211 0.959-0.122s0.597 0.299 0.765 0.593c0.038 0.066 0.124 0.090 0.191 0.052 0.604-0.347 1.378-0.135 1.723 0.47 0.024 0.042 0.059 0.059 0.085 0.066s0.065 0.011 0.107-0.013c0.271-0.154 0.613-0.059 0.766 0.209s0.060 0.613-0.209 0.766c-0.194 0.111-0.408 0.167-0.625 0.167z"
      ></path>
      <path
        fill="#659c35"
        style="fill: var(--color9, #659c35)"
        d="M13.727 22.645c-0.038 0-0.077-0.004-0.116-0.012-0.304-0.063-0.498-0.362-0.434-0.665 0.070-0.33 0.263-0.614 0.546-0.798s0.62-0.249 0.95-0.178c0.048 0.011 0.084-0.005 0.106-0.020s0.051-0.042 0.061-0.089c0.070-0.33 0.263-0.614 0.546-0.798 0.282-0.184 0.62-0.248 0.95-0.177 0.073 0.015 0.15-0.033 0.166-0.108 0.064-0.303 0.362-0.496 0.665-0.433 0.303 0.064 0.497 0.362 0.433 0.665-0.143 0.681-0.815 1.118-1.496 0.976-0.047-0.010-0.084 0.005-0.106 0.020s-0.051 0.041-0.060 0.088c-0.070 0.331-0.263 0.614-0.546 0.798s-0.621 0.247-0.95 0.177c-0.047-0.010-0.083 0.005-0.106 0.020s-0.051 0.042-0.061 0.089c-0.056 0.264-0.289 0.445-0.549 0.445z"
      ></path>
      <path
        style="fill: var(--color4, #cd6e61)"
        d="M21.895 7.579c-0.93 0-1.684 0.754-1.684 1.684 0 0.609 0.327 1.139 0.812 1.434l2.307-2.307c-0.296-0.484-0.825-0.811-1.434-0.811z"
      ></path>
      <path
        style="fill: var(--color4, #cd6e61)"
        d="M24.14 13.754c0.93 0 1.684-0.754 1.684-1.684 0-0.584-0.298-1.099-0.75-1.401l-2.474 2.079c0.261 0.591 0.851 1.005 1.539 1.005z"
      ></path>
    </symbol>

    <symbol
      id="logo-1"
      viewBox="0 0 57 32"
    >
      <path
        d="M20.267 3.733l3.738 3.538-6.938-0.004v17.166h18.133v-6.564l3.733 3.534v-17.671h-18.667zM35.036 17.455l-10.597-10.032h10.597v10.032zM31.746 21.923h-11.81v-11.545h0.835v10.764h10.975v0.782zM22.725 26.72l-0.436 0.898-0.436-0.898h-0.366l0.637 1.198v0.698h0.331v-0.698l0.635-1.198h-0.365zM23.273 28.615l0.154-0.441h0.734l0.155 0.441h0.344l-0.717-1.896h-0.296l-0.716 1.896h0.342zM23.794 27.122l0.275 0.786h-0.549l0.275-0.786zM25.531 27.863c-0.048 0.073-0.072 0.153-0.072 0.241 0 0.16 0.056 0.29 0.168 0.389s0.263 0.148 0.451 0.148 0.349-0.051 0.484-0.152l0.107 0.126h0.367l-0.279-0.329c0.109-0.149 0.164-0.341 0.164-0.574h-0.275c0 0.128-0.026 0.243-0.079 0.348l-0.366-0.432 0.129-0.094c0.091-0.066 0.157-0.132 0.197-0.198s0.060-0.14 0.060-0.219c0-0.12-0.044-0.22-0.133-0.301s-0.201-0.122-0.339-0.122c-0.153 0-0.274 0.043-0.365 0.13s-0.135 0.203-0.135 0.352c0 0.061 0.014 0.124 0.043 0.189s0.081 0.144 0.155 0.237c-0.141 0.101-0.235 0.188-0.283 0.262zM26.386 28.282c-0.093 0.071-0.193 0.107-0.299 0.107-0.095 0-0.17-0.027-0.227-0.082s-0.085-0.126-0.085-0.214c0-0.102 0.052-0.192 0.156-0.271l0.040-0.029 0.414 0.488zM26.046 27.442c-0.089-0.11-0.134-0.202-0.134-0.275 0-0.063 0.018-0.116 0.055-0.158s0.085-0.063 0.147-0.063c0.057 0 0.105 0.018 0.142 0.053s0.056 0.077 0.056 0.126c0 0.075-0.027 0.136-0.081 0.184l-0.040 0.033-0.145 0.099zM29.132 28.472c0.13-0.114 0.205-0.272 0.224-0.474h-0.328c-0.017 0.135-0.059 0.232-0.124 0.29s-0.162 0.087-0.292 0.087c-0.142 0-0.249-0.054-0.323-0.161s-0.109-0.264-0.109-0.469v-0.168c0.002-0.202 0.041-0.355 0.117-0.46s0.188-0.158 0.331-0.158c0.123 0 0.217 0.030 0.28 0.091s0.104 0.158 0.12 0.294h0.328c-0.021-0.207-0.095-0.368-0.223-0.482s-0.296-0.171-0.505-0.171c-0.155 0-0.293 0.037-0.411 0.111s-0.209 0.179-0.272 0.315c-0.063 0.136-0.095 0.294-0.095 0.473v0.177c0.003 0.174 0.035 0.328 0.098 0.46s0.151 0.234 0.266 0.306c0.115 0.071 0.249 0.107 0.4 0.107 0.216 0 0.389-0.056 0.52-0.169zM31.068 28.206c0.064-0.141 0.096-0.304 0.096-0.49v-0.105c-0.001-0.185-0.034-0.347-0.099-0.486s-0.158-0.247-0.277-0.32c-0.119-0.075-0.256-0.112-0.41-0.112s-0.292 0.038-0.411 0.113c-0.119 0.075-0.211 0.183-0.277 0.324s-0.098 0.305-0.098 0.49v0.107c0.001 0.181 0.034 0.342 0.099 0.48s0.159 0.246 0.279 0.322c0.121 0.075 0.258 0.112 0.411 0.112 0.155 0 0.293-0.037 0.411-0.112s0.212-0.183 0.276-0.323zM30.716 27.135c0.080 0.112 0.12 0.273 0.12 0.483v0.099c0 0.214-0.040 0.376-0.119 0.487s-0.19 0.167-0.336 0.167c-0.144 0-0.257-0.057-0.339-0.171s-0.121-0.275-0.121-0.483v-0.109c0.002-0.204 0.043-0.362 0.122-0.473s0.192-0.168 0.335-0.168c0.146 0 0.258 0.056 0.337 0.168z"
      ></path>
    </symbol>
    <symbol
      id="arrow-top"
      viewBox="0 0 320 512"
    >
      <path
        d="M310.6 182.6c-12.51 12.51-32.76 12.49-45.25 0L192 109.3V480c0 17.69-14.31 32-32 32s-32-14.31-32-32V109.3L54.63 182.6c-12.5 12.5-32.75 12.5-45.25 0s-12.5-32.75 0-45.25l128-128c12.5-12.5 32.75-12.5 45.25 0l128 128C323.1 149.9 323.1 170.1 310.6 182.6z"
      />
    </symbol>
  </defs>
</svg>
